Coordinates
version=1
nRows=4
nColumns=63
inDegrees=yes

Units are S.I. units (second, meters, Newtons, ...)
If the header above contains a line with 'inDegrees', this indicates whether rotational values are in degrees (yes) or radians (no).

endheader
time	pelvis_tilt	pelvis_list	pelvis_rotation	pelvis_tx	pelvis_ty	pelvis_tz	hip_flexion_r	hip_adduction_r	hip_rotation_r	knee_angle_r	knee_angle_r_beta	ankle_angle_r	subtalar_angle_r	mtp_angle_r	hip_flexion_l	hip_adduction_l	hip_rotation_l	knee_angle_l	knee_angle_l_beta	ankle_angle_l	subtalar_angle_l	mtp_angle_l	L5_S1_Flex_Ext	L5_S1_Lat_Bending	L5_S1_axial_rotation	L4_L5_Flex_Ext	L4_L5_Lat_Bending	L4_L5_axial_rotation	L3_L4_Flex_Ext	L3_L4_Lat_Bending	L3_L4_axial_rotation	L2_L3_Flex_Ext	L2_L3_Lat_Bending	L2_L3_axial_rotation	L1_L2_Flex_Ext	L1_L2_Lat_Bending	L1_L2_axial_rotation	L1_T12_Flex_Ext	L1_T12_Lat_Bending	L1_T12_axial_rotation	Abs_r3	Abs_r2	Abs_r1	Abs_t1	Abs_t2	neck_flexion	neck_bending	neck_rotation	arm_flex_r	arm_add_r	arm_rot_r	elbow_flex_r	pro_sup_r	wrist_flex_r	wrist_dev_r	arm_flex_l	arm_add_l	arm_rot_l	elbow_flex_l	pro_sup_l	wrist_flex_l	wrist_dev_l
      3.00000000	      9.48812949	      8.16343813	     77.68321653	      0.14125263	      0.98667307	      0.43140320	    -11.80626751	      5.52180968	     -3.29009595	     11.46149108	      0.20004076	     28.00613359	     17.47224801	      0.00000000	    -12.76161541	     -5.76219766	     -7.68215049	     10.24625511	      0.17883089	     27.76575700	    -14.77600042	      0.00000000	     -0.63936738	      2.73663159	     18.85869936	     -1.18736917	      3.63972002	     20.03736806	     -1.05041668	      6.65384605	     20.03736806	     -0.73073298	      6.65384605	     16.50136194	     -0.59371655	      5.58053914	     15.32269323	     -0.36533452	      4.23904234	     14.14402452	     -4.56693729	     30.95732389	    104.88642820	      0.00000000	      0.00000000	     28.34476296	    -18.14852119	    -44.88727470	    -81.33201210	     12.89480563	    -12.94930850	      0.05679531	      0.68829028	    -69.88510865	    -24.34036549	     61.30339690	     46.20302286	    155.38772251	      0.08714541	      0.97967295	    -69.81627907	    -24.09978739
      3.01666667	      9.37666491	      6.95378685	     76.91509635	      0.14082219	      0.98604661	      0.42993482	    -10.56639246	      5.43247723	     -2.54101853	     11.50515719	      0.20080287	     28.09324808	     17.57271137	      0.00000000	    -11.64879680	     -5.62440649	     -7.88653322	     10.14242163	      0.17701865	     27.72491301	    -15.16126962	      0.00000000	     -0.57933868	      2.59135290	     18.64737912	     -1.07588986	      3.44649936	     19.81284031	     -0.95179551	      6.30061545	     19.81284031	     -0.66212617	      6.30061545	     16.31645673	     -0.53797389	      5.28428684	     15.15099553	     -0.33103412	      4.01400565	     13.98553434	     -4.13815823	     29.31390231	    103.71112844	      0.00000000	      0.00000000	     28.36352512	    -17.90893582	    -44.88876482	    -77.75021147	     10.66493172	    -12.54298396	      0.05556699	      0.63929848	    -69.89223523	    -24.33272095	     56.51619368	     45.01562082	    155.78013907	      0.09882985	      1.05558289	    -69.79891540	    -24.04369515
      3.03333333	      8.79224287	      5.13121660	     76.44218128	      0.14116360	      0.98508531	      0.42704364	     -8.74005990	      5.13236885	     -2.01672326	     11.39659033	      0.19890802	     28.10365997	     17.61536546	      0.00000000	     -9.87168413	     -5.30750617	     -8.38370062	      9.98378035	      0.17424984	     27.66486869	    -14.89399354	      0.00000000	     -0.47815662	      2.31087543	     18.11809110	     -0.88798467	      3.07346432	     19.25047179	     -0.78556352	      5.61866253	     19.25047179	     -0.54648521	      5.61866253	     15.85332971	     -0.44401624	      4.71233718	     14.72094902	     -0.27321870	      3.57954604	     13.58856833	     -3.41542495	     26.14108506	    100.76738727	      0.00000000	      0.00000000	     28.37369176	    -16.12134977	    -44.89055925	    -73.29763714	      7.05560986	     -9.94398022	      0.05510951	      0.61235597	    -69.89686565	    -24.34188262	     51.92333860	     42.49011085	    154.64162349	      0.11577832	      1.12948837	    -69.77057793	    -23.94465039
      3.05000000	      7.63892921	      2.82912671	     76.13791064	      0.14294590	      0.98421031	      0.42252154	     -6.50613719	      4.50363110	     -1.65318983	     11.05278381	      0.19290747	     27.90370303	     17.58953842	      0.00000000	     -7.66767958	     -4.65480901	     -9.11379433	      9.61456466	      0.16780581	     27.32368029	    -14.17003530	      0.00000000	     -0.34009476	      1.88342306	     17.16627808	     -0.63158998	      2.50495267	     18.23917046	     -0.55874169	      4.57935483	     18.23917046	     -0.38869430	      4.57935483	     15.02049332	     -0.31581200	      3.84067630	     13.94760094	     -0.19433015	      2.91742232	     12.87470856	     -2.42926288	     21.30565833	     95.47368881	      0.00000000	      0.00000000	     28.36455267	    -12.00259757	    -44.89185985	    -67.64874278	      1.54090510	     -4.25326895	      0.05531057	      0.60326568	    -69.89958218	    -24.36532395	     47.94563131	     38.10626598	    152.55969998	      0.13635435	      1.18683049	    -69.72806379	    -23.80893206
